<?xml version="1.0" encoding="UTF-8"?>
<svg version="1.1" xmlns="http://www.w3.org/2000/svg" width="512" height="512">
<path d="M0 0 C0.72638672 -0.02449219 1.45277344 -0.04898438 2.20117188 -0.07421875 C13.57791451 -0.1335241 23.15143274 5.02096698 32.625 10.8125 C34.7347904 12.07309976 36.84549045 13.33217816 38.95703125 14.58984375 C40.01615723 15.22390137 41.0752832 15.85795898 42.16650391 16.51123047 C47.0047413 19.37752756 51.90632465 22.12716968 56.8125 24.875 C64.5831738 29.24327136 72.30807038 33.68204576 80 38.1875 C88.69897051 43.28265196 97.429729 48.31924677 106.1875 53.3125 C118.5128733 60.34082108 130.80972214 67.41740519 143.09472656 74.51611328 C147.41585916 77.01240338 151.73848395 79.50610236 156.0612793 81.99951172 C158.21917813 83.24431001 160.37689466 84.48942438 162.53442383 85.73486328 C168.10945791 88.95277008 173.68723455 92.16580328 179.26953125 95.37109375 C185.62647612 99.02312761 191.97561005 102.68826881 198.3125 106.375 C199.05967285 106.8095752 199.8068457 107.24415039 200.57666016 107.69189453 C214.11143362 115.61591353 223.13128362 123.2145961 227.66581655 138.64354134 C228.66528295 142.86508304 228.72711717 146.92073453 228.69345093 151.24194336 C228.6981309 152.18264899 228.70281087 153.12335463 228.70763266 154.09256649 C228.71951386 157.21680614 228.71015239 160.34060154 228.70068359 163.46484375 C228.70475234 165.71607721 228.71009593 167.96730867 228.71661377 170.21853638 C228.73025696 176.31351266 228.72500102 182.40833611 228.71547651 188.50331497 C228.70786442 194.89145561 228.71492983 201.27958344 228.71963501 207.66772461 C228.72543701 219.08050342 228.71613261 230.49319782 228.700857 241.90596235 C228.68745509 252.23844932 228.68978359 262.57083516 228.70361328 272.90332031 C228.71969429 284.92331366 228.72562981 296.9432307 228.71677649 308.96323872 C228.71210707 315.31828043 228.71145506 321.67325259 228.72138596 328.02828979 C228.730072 334.00377183 228.72400358 339.97906346 228.70670319 345.95452499 C228.70274712 348.14340779 228.70385724 350.3323067 228.71049118 352.52118301 C228.71873152 355.5170216 228.70835491 358.51225617 228.69345093 361.50805664 C228.70014309 362.36702514 228.70683526 363.22599363 228.71373022 364.11099148 C228.60955841 374.96226664 224.98881152 385.40651998 217.42944336 393.35498047 C211.57521715 398.64218325 205.38157915 402.55417508 198.5 406.375 C196.77722598 407.35030165 195.05445872 408.32561539 193.33203125 409.30152893 C191.53672613 410.31654009 189.73869997 411.32657251 187.93994141 412.33544922 C182.5928724 415.33717074 177.27212946 418.38495896 171.94961548 421.42993164 C170.17953904 422.44205204 168.40859332 423.45263648 166.63745117 424.46289062 C159.17058951 428.72426671 151.73189587 433.03154653 144.3125 437.375 C135.71727328 442.4068069 127.0893787 447.37889072 118.4375 452.3125 C106.11224804 459.34103507 93.81527933 466.41740434 81.53027344 473.51611328 C78.29425371 475.38554076 75.05744423 477.25359255 71.8203125 479.12109375 C70.74539551 479.74121338 69.67047852 480.36133301 68.56298828 481.00024414 C66.40788904 482.24322199 64.25261749 483.48590115 62.09716797 484.72827148 C57.07012684 487.62649515 52.04513289 490.52807201 47.02807617 493.44354248 C45.26274789 494.46915628 43.49671529 495.49354664 41.73046875 496.51757812 C39.5233368 497.79771466 37.31751077 499.08010666 35.11328125 500.36523438 C19.44695195 509.4420769 6.19076912 515.09395724 -12.12890625 511.74609375 C-23.37591762 508.22709019 -33.41152009 501.34034172 -43.44042969 495.31298828 C-48.77917028 492.1266031 -54.17153593 489.03441952 -59.5625 485.9375 C-61.74752736 484.67861368 -63.93242265 483.4194981 -66.1171875 482.16015625 C-67.20225586 481.53512207 -68.28732422 480.91008789 -69.40527344 480.26611328 C-74.83409946 477.13819849 -80.26066556 474.00636837 -85.6875 470.875 C-87.29818359 469.9459082 -87.29818359 469.9459082 -88.94140625 468.99804688 C-94.33437516 465.88721667 -99.72656364 462.77504851 -105.1171875 459.66015625 C-116.92379484 452.83997363 -128.74777 446.0517674 -140.59222412 439.29763794 C-149.62169169 434.14683806 -158.61550319 428.93787335 -167.58129883 423.67700195 C-173.03640108 420.48247444 -178.51328328 417.33176444 -184.01953125 414.2265625 C-185.276716 413.51566619 -186.53387752 412.80472879 -187.79101562 412.09375 C-190.18547328 410.73994007 -192.58422893 409.39501848 -194.98632812 408.0546875 C-210.36157737 399.36628045 -222.2216393 391.06915775 -227.22469592 373.48715842 C-227.69089824 371.35949103 -227.81500854 369.4937291 -227.81892776 367.31874657 C-227.82276891 366.51576838 -227.82661005 365.71279019 -227.8305676 364.88547933 C-227.82970112 364.00903379 -227.82883463 363.13258824 -227.82794189 362.22958374 C-227.83091302 361.29400466 -227.83388414 360.35842557 -227.8369453 359.39449561 C-227.84563392 356.2517576 -227.8471407 353.10905767 -227.84863281 349.96630859 C-227.85326093 347.7159619 -227.85828558 345.46561599 -227.86367798 343.215271 C-227.87680603 337.09519719 -227.88324793 330.97513435 -227.88768864 324.85504866 C-227.89061918 321.03103583 -227.89472399 317.207026 -227.89919281 313.38301468 C-227.91130263 302.78860029 -227.92168392 292.19418852 -227.9250679 281.59976768 C-227.92528747 280.9218732 -227.92550703 280.24397872 -227.92573325 279.54554198 C-227.92595153 278.86605094 -227.92616981 278.18655989 -227.9263947 277.48647821 C-227.92683816 276.10963782 -227.92728473 274.73279742 -227.92773438 273.35595703 C-227.9279558 272.67300074 -227.92817723 271.99004446 -227.92840537 271.28639252 C-227.93235028 260.22914521 -227.94979494 249.17196392 -227.9730939 238.11474209 C-227.99683965 226.75341749 -228.00901357 215.39213712 -228.01043582 204.0307833 C-228.01148342 197.6555174 -228.01738157 191.2803446 -228.03525543 184.90510178 C-228.05174956 178.90509684 -228.05388498 172.90525484 -228.04511642 166.90523529 C-228.04434673 164.70667458 -228.0486798 162.50810507 -228.05857468 160.3095665 C-228.07132071 157.300291 -228.06540269 154.29159022 -228.05499268 151.28231812 C-228.06304908 150.4192569 -228.07110548 149.55619569 -228.07940602 148.6669811 C-227.99190526 137.79718205 -224.36369115 127.41815054 -216.84838867 119.41699219 C-210.6660896 113.79204731 -203.92120094 109.76246314 -196.625 105.75 C-195.37882546 105.0533909 -194.13339496 104.35544929 -192.88867188 103.65625 C-190.98866446 102.58906098 -189.08830836 101.52258015 -187.18563843 100.46014404 C-181.30695052 97.17633268 -175.49286888 93.78660461 -169.6875 90.375 C-161.09320504 85.34161916 -152.46436235 80.37109996 -143.8125 75.4375 C-134.71670013 70.25057574 -125.63037737 65.04818494 -116.5625 59.8125 C-115.49644531 59.19697266 -114.43039063 58.58144531 -113.33203125 57.94726562 C-110.11692477 56.09029806 -106.90214622 54.23276421 -103.6875 52.375 C-80.41568044 38.92606959 -80.41568044 38.92606959 -70.671875 33.3671875 C-70.08553284 33.03267578 -69.49919067 32.69816406 -68.89508057 32.35351562 C-66.53059039 31.00483541 -64.16597801 29.65637081 -61.80090332 28.30871582 C-52.38155573 22.94019274 -43.00493766 17.50142745 -33.67529297 11.97827148 C-22.72255762 5.53577244 -12.97162138 0.02242285 0 0 Z " fill="#1D808B" transform="translate(255.6875,-0.375)"/>
<path d="M0 0 C0.72638672 -0.02449219 1.45277344 -0.04898438 2.20117188 -0.07421875 C13.57791451 -0.1335241 23.15143274 5.02096698 32.625 10.8125 C34.7347904 12.07309976 36.84549045 13.33217816 38.95703125 14.58984375 C40.01615723 15.22390137 41.0752832 15.85795898 42.16650391 16.51123047 C47.0047413 19.37752756 51.90632465 22.12716968 56.8125 24.875 C64.5831738 29.24327136 72.30807038 33.68204576 80 38.1875 C88.69897051 43.28265196 97.429729 48.31924677 106.1875 53.3125 C118.5128733 60.34082108 130.80972214 67.41740519 143.09472656 74.51611328 C147.41585916 77.01240338 151.73848395 79.50610236 156.0612793 81.99951172 C158.21917813 83.24431001 160.37689466 84.48942438 162.53442383 85.73486328 C168.10945791 88.95277008 173.68723455 92.16580328 179.26953125 95.37109375 C185.62647612 99.02312761 191.97561005 102.68826881 198.3125 106.375 C199.05967285 106.8095752 199.8068457 107.24415039 200.57666016 107.69189453 C217.73614351 117.73802292 217.73614351 117.73802292 222.3125 125.375 C222.2253418 127.29052734 222.2253418 127.29052734 221.3125 129.375 C219.00952148 131.07568359 219.00952148 131.07568359 215.93359375 132.7734375 C214.79728516 133.41023437 213.66097656 134.04703125 212.49023438 134.703125 C211.24351513 135.38546334 209.99676966 136.06775377 208.75 136.75 C207.46726469 137.46465044 206.18537206 138.18081538 204.90429688 138.8984375 C202.94307799 139.99677906 200.9813721 141.0941254 199.01693726 142.18670654 C193.06500546 145.49765232 187.18316999 148.92216447 181.3125 152.375 C172.98955989 157.24595158 164.64787029 162.08330279 156.28173828 166.87963867 C155.07350326 167.57268637 153.86580037 168.26666277 152.65869141 168.96166992 C145.64764765 172.99662537 138.60010241 176.86107686 131.3125 180.375 C130.85101563 179.73175781 130.38953125 179.08851563 129.9140625 178.42578125 C128.12237531 175.94362172 126.31818623 173.4711577 124.50537109 171.00439453 C123.35614577 169.43461765 122.21884074 167.85613521 121.08203125 166.27734375 C100.96931034 139.08979639 72.6463128 120.00046313 40.0625 111 C39.20076172 110.7613623 38.33902344 110.52272461 37.45117188 110.27685547 C25.41055604 107.13967165 13.38618147 106.02043909 0.98120117 106.05932617 C-1.12048012 106.06249319 -3.22075581 106.03887922 -5.32226562 106.01367188 C-14.81165094 105.96972223 -23.45076184 107.17397931 -32.6875 109.375 C-33.45892334 109.54813721 -34.23034668 109.72127441 -35.02514648 109.8996582 C-60.96896322 115.86286384 -84.53215509 129.00273523 -103.6875 147.375 C-104.63109375 148.24382812 -105.5746875 149.11265625 -106.546875 150.0078125 C-130.70105148 172.68758682 -148.52357258 208.65279293 -149.83276367 242.08447266 C-149.85310945 245.62813897 -149.87318321 249.17160743 -149.87280273 252.71533203 C-149.8749742 254.97317801 -149.89312625 257.23052237 -149.91210938 259.48828125 C-149.96282424 272.00144254 -148.49055102 283.7122073 -144.9375 295.75 C-144.67727051 296.64485107 -144.41704102 297.53970215 -144.14892578 298.46166992 C-141.31175096 307.98793168 -137.93436716 317.27327501 -133.25 326.0625 C-131.6875 329.375 -131.6875 329.375 -131.77929688 331.38818359 C-133.09823001 334.27352711 -134.88296098 334.98608712 -137.65625 336.4765625 C-138.69322021 337.04366943 -139.73019043 337.61077637 -140.79858398 338.19506836 C-142.47609741 339.08850952 -142.47609741 339.08850952 -144.1875 340 C-146.50206764 341.26292089 -148.81586931 342.52724657 -151.12890625 343.79296875 C-152.26086426 344.40833496 -153.39282227 345.02370117 -154.55908203 345.65771484 C-158.46163621 347.79994725 -162.30246819 350.0314056 -166.125 352.3125 C-184.51174533 363.22763198 -203.11076724 373.78751953 -221.6875 384.375 C-226.18638543 380.46165554 -227.31179077 374.71629082 -227.95956683 368.95543098 C-228.07001793 366.46797908 -228.08784879 363.99785613 -228.06845093 361.50805664 C-228.0731309 360.56735101 -228.07781087 359.62664537 -228.08263266 358.65743351 C-228.09451386 355.53319386 -228.08515239 352.40939846 -228.07568359 349.28515625 C-228.07975234 347.03392279 -228.08509593 344.78269133 -228.09161377 342.53146362 C-228.10525696 336.43648734 -228.10000102 330.34166389 -228.09047651 324.24668503 C-228.08286442 317.85854439 -228.08992983 311.47041656 -228.09463501 305.08227539 C-228.10043701 293.66949658 -228.09113261 282.25680218 -228.075857 270.84403765 C-228.06245509 260.51155068 -228.06478359 250.17916484 -228.07861328 239.84667969 C-228.09469429 227.82668634 -228.10062981 215.8067693 -228.09177649 203.78676128 C-228.08710707 197.43171957 -228.08645506 191.07674741 -228.09638596 184.72171021 C-228.105072 178.74622817 -228.09900358 172.77093654 -228.08170319 166.79547501 C-228.07774712 164.60659221 -228.07885724 162.4176933 -228.08549118 160.22881699 C-228.09373152 157.2329784 -228.08335491 154.23774383 -228.06845093 151.24194336 C-228.07514309 150.38297486 -228.08183526 149.52400637 -228.08873022 148.63900852 C-227.98450289 137.78195001 -224.35475326 127.40863483 -216.84838867 119.41699219 C-210.6660896 113.79204731 -203.92120094 109.76246314 -196.625 105.75 C-195.37882546 105.0533909 -194.13339496 104.35544929 -192.88867188 103.65625 C-190.98866446 102.58906098 -189.08830836 101.52258015 -187.18563843 100.46014404 C-181.30695052 97.17633268 -175.49286888 93.78660461 -169.6875 90.375 C-161.09320504 85.34161916 -152.46436235 80.37109996 -143.8125 75.4375 C-134.71670013 70.25057574 -125.63037737 65.04818494 -116.5625 59.8125 C-115.49644531 59.19697266 -114.43039063 58.58144531 -113.33203125 57.94726562 C-110.11692477 56.09029806 -106.90214622 54.23276421 -103.6875 52.375 C-80.41568044 38.92606959 -80.41568044 38.92606959 -70.671875 33.3671875 C-70.08553284 33.03267578 -69.49919067 32.69816406 -68.89508057 32.35351562 C-66.53059039 31.00483541 -64.16597801 29.65637081 -61.80090332 28.30871582 C-52.38155573 22.94019274 -43.00493766 17.50142745 -33.67529297 11.97827148 C-22.72255762 5.53577244 -12.97162138 0.02242285 0 0 Z " fill="#3BA7B3" transform="translate(255.6875,-0.375)"/>
<path d="M0 0 C2.17444005 -0.00216746 4.34835573 -0.02030915 6.52270508 -0.03930664 C19.30837752 -0.09280699 31.53943493 1.39095027 43.8918457 4.81030273 C44.82359619 5.06682617 45.75534668 5.32334961 46.71533203 5.58764648 C55.94820927 8.24110639 64.55005611 11.92191014 73.1418457 16.18530273 C74.15375977 16.67772461 75.16567383 17.17014648 76.20825195 17.67749023 C88.9703923 24.25361495 99.86720162 33.26890984 110.1418457 43.18530273 C110.99391602 43.97420898 111.84598633 44.76311523 112.72387695 45.57592773 C119.8683021 52.37156992 125.59771411 60.06823066 131.1418457 68.18530273 C131.76188477 69.07604492 132.38192383 69.96678711 133.02075195 70.88452148 C134.1418457 73.18530273 134.1418457 73.18530273 134.00708008 75.14404297 C132.78012826 78.03866603 131.17048018 78.67227218 128.41918945 80.14624023 C126.91642456 80.96680908 126.91642456 80.96680908 125.38330078 81.80395508 C124.29299561 82.3835498 123.20269043 82.96314453 122.0793457 83.56030273 C119.78918143 84.808283 117.50014716 86.05833881 115.2121582 87.31030273 C114.62584122 87.62929535 114.03952423 87.94828796 113.43544006 88.27694702 C107.37061849 91.58317972 101.40871576 95.05958073 95.4543457 98.56030273 C93.48184215 99.71681322 91.50919104 100.87307206 89.53637695 102.02905273 C88.61937012 102.5665918 87.70236328 103.10413086 86.75756836 103.65795898 C81.24398437 106.87738977 75.69606776 110.03660643 70.1418457 113.18530273 C67.12092062 110.25156904 64.4141374 107.34992361 61.9543457 103.93530273 C51.17659285 90.0188467 35.32632972 80.76270589 17.98168945 77.61108398 C3.03740351 75.95398615 -10.91542024 76.35294237 -24.8581543 82.18530273 C-25.77467773 82.5578418 -26.69120117 82.93038086 -27.63549805 83.31420898 C-45.37515206 91.35730646 -58.71703549 106.10274469 -65.7956543 124.06030273 C-68.97828716 132.79828399 -70.1808114 140.30863117 -70.1081543 149.56030273 C-70.11588867 150.53741211 -70.12362305 151.51452148 -70.1315918 152.52124023 C-70.07875285 172.38868478 -61.94778621 191.1394787 -48.0065918 205.29077148 C-31.64712818 220.90282191 -11.7420336 225.88676069 10.3605957 225.43530273 C16.2546695 225.20470517 21.58446277 224.17065188 27.1418457 222.18530273 C28.13313477 221.83338867 29.12442383 221.48147461 30.14575195 221.11889648 C47.38324332 214.44844963 59.33103477 203.51765702 69.1418457 188.18530273 C72.77444916 189.55003096 76.05145977 191.18331433 79.40356445 193.13452148 C80.42780518 193.72821533 81.4520459 194.32190918 82.50732422 194.93359375 C83.60359131 195.57353271 84.6998584 196.21347168 85.8293457 196.87280273 C87.56804647 197.88289102 89.30675133 198.89297235 91.04570007 199.90263367 C92.24786892 200.60085514 93.44978024 201.29952018 94.65144348 201.99861145 C98.86565397 204.44936725 103.09051608 206.88088324 107.3215332 209.30249023 C108.48734377 209.97079772 109.65311575 210.6391725 110.81884766 211.30761719 C113.0193046 212.56867086 115.22090346 213.82773479 117.42382812 215.08447266 C123.48973387 218.56885413 129.38297923 222.21263787 135.1418457 226.18530273 C130.06026467 237.67409463 121.71180589 247.13292757 113.1418457 256.18530273 C112.32200195 257.06959961 111.5021582 257.95389648 110.6574707 258.86499023 C85.3698723 285.27481934 48.06846664 301.48664235 11.6496582 302.42358398 C-3.8904118 302.67086517 -18.81242994 302.54254954 -33.8581543 298.18530273 C-34.69137207 297.95456055 -35.52458984 297.72381836 -36.38305664 297.48608398 C-61.62968212 290.349629 -83.09444831 277.29476514 -101.8581543 259.18530273 C-102.71022461 258.39639648 -103.56229492 257.60749023 -104.44018555 256.79467773 C-128.60944032 233.80533934 -145.85380751 197.00483716 -146.98120117 163.53198242 C-147.06207999 159.95595261 -147.08901901 156.38082411 -147.09838867 152.80395508 C-147.10804406 150.58562984 -147.1391289 148.36825357 -147.1706543 146.15014648 C-147.24234064 136.43458589 -146.13756019 127.63927941 -143.8581543 118.18530273 C-143.68493652 117.41492676 -143.51171875 116.64455078 -143.33325195 115.85083008 C-137.38610491 89.91858099 -124.23125058 66.3202818 -105.8581543 47.18530273 C-105.40134277 46.6920752 -104.94453125 46.19884766 -104.47387695 45.69067383 C-77.83766024 16.95043468 -39.1111086 -0.00434809 0 0 Z " fill="#000000" transform="translate(251.858154296875,104.814697265625)"/>
<path d="M0 0 C0.97710937 -0.00773438 1.95421875 -0.01546875 2.9609375 -0.0234375 C23.07204929 0.0300495 41.36666565 8.16876109 55.6484375 22.140625 C59.48187447 26.04932261 63.34969628 30.22612938 65.625 35.25 C65.51782227 37.17456055 65.51782227 37.17456055 64.625 39.25 C62.35375977 40.93481445 62.35375977 40.93481445 59.31640625 42.61328125 C58.19024902 43.24500244 57.0640918 43.87672363 55.90380859 44.52758789 C54.6650759 45.20595919 53.42630536 45.88426139 52.1875 46.5625 C50.91146755 47.27386791 49.63624934 47.9866982 48.36181641 48.70092773 C45.73524719 50.1719967 43.10571584 51.63755157 40.47412109 53.09960938 C34.77855468 56.27200345 29.14022862 59.54304705 23.5 62.8125 C21.35171756 64.05365385 19.20327984 65.29453896 17.0546875 66.53515625 C15.99475586 67.14762207 14.93482422 67.76008789 13.84277344 68.39111328 C8.43829358 71.51324603 3.03154621 74.63144734 -2.375 77.75 C-8.9344355 81.5337003 -15.49346588 85.31809509 -22.05078125 89.10546875 C-27.45065153 92.22415481 -32.85296252 95.33858028 -38.25634766 98.45117188 C-41.3749975 100.24999856 -44.49032062 102.05449259 -47.60546875 103.859375 C-49.52852523 104.96895904 -51.45169641 106.07834434 -53.375 107.1875 C-54.25969971 107.70207764 -55.14439941 108.21665527 -56.0559082 108.74682617 C-56.8624585 109.21064697 -57.66900879 109.67446777 -58.5 110.15234375 C-59.20382813 110.55960693 -59.90765625 110.96687012 -60.6328125 111.38647461 C-62.375 112.25 -62.375 112.25 -64.375 112.25 C-73.31295221 93.34958723 -77.74782122 72.01687142 -70.5690918 51.62866211 C-69.8777351 49.8199708 -69.12720132 48.03424536 -68.375 46.25 C-67.91738281 45.16332031 -67.45976562 44.07664063 -66.98828125 42.95703125 C-63.72417651 35.90119936 -59.5176754 30.05329576 -54.375 24.25 C-53.86710937 23.64800781 -53.35921875 23.04601562 -52.8359375 22.42578125 C-39.43955713 7.68976284 -19.60236561 -0.15394528 0 0 Z " fill="#3BA7B3" transform="translate(254.375,180.75)"/>
<path d="M0 0 C2 1 2 1 3.30834961 2.37207031 C5.38379354 4.36933689 7.56282749 5.62082801 10.06640625 7.046875 C11.09725342 7.63750732 12.12810059 8.22813965 13.19018555 8.83666992 C14.30304932 9.46806885 15.41591309 10.09946777 16.5625 10.75 C18.31271979 11.75095194 20.06293516 12.75191169 21.81288147 13.75334167 C23.63975708 14.79806294 25.46777602 15.84076308 27.29589844 16.88330078 C33.27299817 20.29504648 39.22869926 23.74393547 45.1875 27.1875 C51.45146002 30.80378753 57.71625629 34.4181772 64 38 C55.82390673 55.88802726 39.46227364 67.18638053 21.52734375 73.9296875 C3.32484198 80.31119897 -18.76613936 78.21056964 -36 70 C-48.3458176 62.95842533 -59.75960357 53.3961543 -67 41 C-65.7220314 37.1660942 -64.52549332 36.89363185 -61.03125 34.99609375 C-59.47555298 34.14047852 -59.47555298 34.14047852 -57.88842773 33.26757812 C-56.21115601 32.36168945 -56.21115601 32.36168945 -54.5 31.4375 C-52.18804227 30.16674598 -49.87684499 28.89460745 -47.56640625 27.62109375 C-46.43477051 26.99960449 -45.30313477 26.37811523 -44.13720703 25.73779297 C-40.19803728 23.55576882 -36.30846427 21.30028633 -32.4375 19 C-31.7973999 18.62182129 -31.1572998 18.24364258 -30.49780273 17.85400391 C-27.32144943 15.97564428 -24.14986114 14.08947549 -20.98144531 12.19775391 C-17.67936832 10.22877397 -14.37123433 8.27026744 -11.0625 6.3125 C-10.00023193 5.67505859 -8.93796387 5.03761719 -7.84350586 4.38085938 C-6.85487549 3.79755859 -5.86624512 3.21425781 -4.84765625 2.61328125 C-3.96086182 2.08516846 -3.07406738 1.55705566 -2.16040039 1.01293945 C-1.44746826 0.67866943 -0.73453613 0.34439941 0 0 Z " fill="#1D828D" transform="translate(258,254)"/>
<path d="M0 0 C4.95 0 9.9 0 15 0 C15 3.96 15 7.92 15 12 C20.94 12 26.88 12 33 12 C33 8.04 33 4.08 33 0 C37.95 0 42.9 0 48 0 C48 3.96 48 7.92 48 12 C51.96 12 55.92 12 60 12 C60 16.95 60 21.9 60 27 C56.04 27 52.08 27 48 27 C48 33.27 48 39.54 48 46 C51.96 46 55.92 46 60 46 C60 50.62 60 55.24 60 60 C56.04 60 52.08 60 48 60 C48 64.29 48 68.58 48 73 C43.05 73 38.1 73 33 73 C33 69.04 33 65.08 33 61 C27.06 61 21.12 61 15 61 C15 64.96 15 68.92 15 73 C10.05 73 5.1 73 0 73 C0 68.71 0 64.42 0 60 C-3.96 60 -7.92 60 -12 60 C-12 55.38 -12 50.76 -12 46 C-8.04 46 -4.08 46 0 46 C0 39.73 0 33.46 0 27 C-3.96 27 -7.92 27 -12 27 C-12 22.38 -12 17.76 -12 13 C-8.04 13 -4.08 13 0 13 C0 8.71 0 4.42 0 0 Z " fill="#000101" transform="translate(390,220)"/>
<path d="M0 0 C5.94 0 11.88 0 18 0 C18 6.27 18 12.54 18 19 C12.06 19 6.12 19 0 19 C0 12.73 0 6.46 0 0 Z " fill="#1D7781" transform="translate(405,247)"/>
</svg>
